<svg width="12" height="11" viewBox="0 0 12 11" fill="none" xmlns="http://www.w3.org/2000/svg">
<g id="Frame" clip-path="url(#clip0_121_55916)">
<path id="Vector" fill-rule="evenodd" clip-rule="evenodd" d="M3.92835 1.64807L0.349272 5.22748C0.129636 5.44713 0.129636 5.80326 0.349272 6.02291L3.92835 9.60235C4.14798 9.822 4.50408 9.822 4.7237 9.60235C4.94333 9.3827 4.94333 9.02657 4.7237 8.80692L2.10472 6.18765L10.4952 6.18765C10.8058 6.18765 11.0576 5.93583 11.0576 5.62519C11.0576 5.31456 10.8058 5.06274 10.4952 5.06274L2.10471 5.06274L4.7237 2.44346C4.94333 2.2238 4.94333 1.86773 4.7237 1.64807C4.50408 1.42841 4.14798 1.42841 3.92835 1.64807Z" fill="#637381"/>
</g>
<defs>
<clipPath id="clip0_121_55916">
<rect width="11.248" height="9.74922" fill="white" transform="translate(11.2451 10.5) rotate(180)"/>
</clipPath>
</defs>
</svg>
