<svg width="13" height="11" viewBox="0 0 13 11" fill="none" xmlns="http://www.w3.org/2000/svg">
<g id="Frame" clip-path="url(#clip0_121_55912)">
<path id="Vector" fill-rule="evenodd" clip-rule="evenodd" d="M8.30603 9.35388L11.8851 5.77447C12.1047 5.55482 12.1047 5.19869 11.8851 4.97904L8.30603 1.3996C8.0864 1.17995 7.7303 1.17995 7.51067 1.3996C7.29104 1.61925 7.29104 1.97538 7.51067 2.19503L10.1297 4.8143H1.73916C1.42855 4.8143 1.17676 5.06613 1.17676 5.37676C1.17676 5.68739 1.42855 5.93921 1.73916 5.93921H10.1297L7.51067 8.5585C7.29104 8.77816 7.29104 9.13423 7.51067 9.35388C7.7303 9.57354 8.0864 9.57354 8.30603 9.35388Z" fill="white"/>
</g>
<defs>
<clipPath id="clip0_121_55912">
<rect width="11.248" height="9.74922" fill="white" transform="translate(0.989258 0.501953)"/>
</clipPath>
</defs>
</svg>
